<svg xmlns="http://www.w3.org/2000/svg" width="170.88" height="25.987" viewBox="0 0 170.88 25.987">
  <g id="govstar_logo" data-name="govstar logo" transform="translate(-1991.788 -370.232)">
    <g id="Group_105" data-name="Group 105">
      <path id="Path_2060" data-name="Path 2060" d="M2032.238,375.767a6.8,6.8,0,0,0-2.474.453,5.313,5.313,0,0,0-1.947,1.288,8.486,8.486,0,0,0-1.48,2.154,11.317,11.317,0,0,0-.92,2.778,16.744,16.744,0,0,0-.31,3.3,15.412,15.412,0,0,0,.492,4.042,9.887,9.887,0,0,0,1.411,3.138,6.342,6.342,0,0,0,2.2,2.006,6.244,6.244,0,0,0,6.56-.522,7.672,7.672,0,0,0,2.42-3.481,15.406,15.406,0,0,0,.841-5.37,14.7,14.7,0,0,0-.463-3.772,10.064,10.064,0,0,0-1.323-3.058,6.8,6.8,0,0,0-2.089-2.066,5.629,5.629,0,0,0-2.921-.895m-.374-.531a14.2,14.2,0,0,1,5.163.9,11.5,11.5,0,0,1,4.067,2.636,10.775,10.775,0,0,1,2.252,3.275,9.179,9.179,0,0,1-.816,8.92,11.24,11.24,0,0,1-4.362,3.787,13.2,13.2,0,0,1-6.039,1.4,13.948,13.948,0,0,1-4.72-.792,12.3,12.3,0,0,1-3.9-2.242,10.513,10.513,0,0,1-2.626-3.378,9.066,9.066,0,0,1-.944-4.033,9.175,9.175,0,0,1,1.627-5.217,11.517,11.517,0,0,1,4.362-3.836A12.634,12.634,0,0,1,2031.864,375.236Z" fill="#e6dcd0"/>
      <path id="Path_2061" data-name="Path 2061" d="M2127.938,394.9a3.4,3.4,0,0,1-1.662.31h-.3v.56h9.585v-.586a3.716,3.716,0,0,1-1.093-.211,2.954,2.954,0,0,1-1.087-.771,5.78,5.78,0,0,1-.871-1.357l-8.089-17.61h-.531l-6.4,14.482a11.607,11.607,0,0,1-2.979,4.456,5.243,5.243,0,0,1-1.176.717,4.327,4.327,0,0,1-.873.238v.642h7.311v-.585a3.611,3.611,0,0,1-.547-.083,2.865,2.865,0,0,1-.7-.31,2.525,2.525,0,0,1-.959-.979,2.631,2.631,0,0,1-.368-1.313,3.988,3.988,0,0,1,.319-1.544l.649-1.5h8.527l.329.738a3.737,3.737,0,0,1,.187.389c.059.133.1.23.133.285.467,1.012.772,1.706.915,2.1a3,3,0,0,1,.206.978A1.038,1.038,0,0,1,2127.938,394.9Zm-9.525-5.975,3.944-8.969,4.047,8.969Z" fill="#e6dcd0"/>
      <path id="Path_2062" data-name="Path 2062" d="M2088.655,386.478a7,7,0,0,0-2.232-1.481,31.985,31.985,0,0,0-4.161-1.3l-1.126-.285-.7-.177a4.854,4.854,0,0,1-.708-.187c-1.269-.3-2.252-.565-2.96-.777a11.171,11.171,0,0,1-1.726-.649,4.045,4.045,0,0,1-1.033-.688,2.337,2.337,0,0,1-.777-1.747,2.575,2.575,0,0,1,.276-1.106,3.757,3.757,0,0,1,.732-1.037,4.234,4.234,0,0,1,1.584-.979,6.381,6.381,0,0,1,2.134-.329,12.094,12.094,0,0,1,3.162.423,11.636,11.636,0,0,1,2.822,1.165,8.153,8.153,0,0,1,2.095,1.721,13,13,0,0,1,2.03,3.811h.537v-6.825h-.507q-.486,1.659-1.612,1.657a4.906,4.906,0,0,1-1.687-.62,14.73,14.73,0,0,0-6.811-1.834,10.2,10.2,0,0,0-3.964.748,6.49,6.49,0,0,0-2.778,2.085,4.91,4.91,0,0,0-.993,3.009,4.061,4.061,0,0,0,.89,2.537,5.336,5.336,0,0,0,1.436,1.353,12.138,12.138,0,0,0,2.282,1.067q1.3.5,4.666,1.411l1.441.389q1.77.473,2.788.821a11.789,11.789,0,0,1,1.658.673,4.333,4.333,0,0,1,1.042.724,2.728,2.728,0,0,1,.88,1.971,2.931,2.931,0,0,1-.649,1.859,4.2,4.2,0,0,1-1.809,1.279,6.821,6.821,0,0,1-2.557.462,10.786,10.786,0,0,1-3.31-.561,14.2,14.2,0,0,1-3.339-1.579,11.906,11.906,0,0,1-2.611-2.192,8.539,8.539,0,0,1-1.887-3.792h-.621v8.6h.5a2.614,2.614,0,0,1,.944-1.534,2.8,2.8,0,0,1,1.736-.536,4.4,4.4,0,0,1,1.14.162,18.191,18.191,0,0,1,1.756.629,18.8,18.8,0,0,0,3,1.028,11.821,11.821,0,0,0,2.631.281,10.822,10.822,0,0,0,3.566-.546,6.609,6.609,0,0,0,2.625-1.643,5.433,5.433,0,0,0,1.269-1.834,5.233,5.233,0,0,0,.448-2.08,4.9,4.9,0,0,0-.394-1.962A4.786,4.786,0,0,0,2088.655,386.478Z" fill="#e6dcd0"/>
      <path id="Path_2063" data-name="Path 2063" d="M2055.289,387.394h.007l-3.66-8.032a4.182,4.182,0,0,1-.418-1.643,1.323,1.323,0,0,1,.561-1.136,2.589,2.589,0,0,1,1.539-.4h.752v-.531h-10.66v.531h.289c1.456,0,2.651,1,3.571,3.009l7.794,16.995.473.035,1.87-4.207-.281-.612Z" fill="#e6dcd0"/>
      <path id="Path_2064" data-name="Path 2064" d="M2006.44,386.684v.552c2.222.106,3.346,1.309,3.346,3.637v1.038a3.042,3.042,0,0,1-1.426,2.621,6.371,6.371,0,0,1-1.972.812,9.975,9.975,0,0,1-2.449.309,8.1,8.1,0,0,1-1.815-.2,6.268,6.268,0,0,1-1.637-.61,5.978,5.978,0,0,1-1.338-.979,6.559,6.559,0,0,1-1.017-1.313,5.843,5.843,0,0,1-.473-1.184c-.147-.488-.265-.984-.363-1.486s-.172-1.082-.227-1.735-.088-1.314-.088-1.978a22.536,22.536,0,0,1,.541-5.433,7.02,7.02,0,0,1,1.736-3.3,5.094,5.094,0,0,1,1.888-1.15,6.64,6.64,0,0,1,2.346-.433,9.03,9.03,0,0,1,4.43,1.2,10.417,10.417,0,0,1,3.565,3.26,9.849,9.849,0,0,1,.92,1.638,19.7,19.7,0,0,1,.7,1.867h.667l-.132-8.049h-.531a6.122,6.122,0,0,1-1.131,1.343,1.642,1.642,0,0,1-1.048.418,4.966,4.966,0,0,1-1.8-.649,16.731,16.731,0,0,0-3.147-1.23,11.272,11.272,0,0,0-2.931-.384,11.107,11.107,0,0,0-3,.418,12.744,12.744,0,0,0-2.852,1.181,11.821,11.821,0,0,0-2.469,1.873,11.02,11.02,0,0,0-1.612,2.105,9.671,9.671,0,0,0-.994,2.4,10.03,10.03,0,0,0-.344,2.616,9.523,9.523,0,0,0,.9,4.091,10,10,0,0,0,2.508,3.3,11.677,11.677,0,0,0,3.816,2.168,14.378,14.378,0,0,0,4.73.762,11.294,11.294,0,0,0,2.262-.191,20.937,20.937,0,0,0,2.489-.758,10.188,10.188,0,0,1,1.5-.526,5.266,5.266,0,0,1,1.176-.123,3.176,3.176,0,0,1,1.205.2,4.211,4.211,0,0,1,1.131.807h.531v-4.722a3.754,3.754,0,0,1,.9-2.758,3.516,3.516,0,0,1,2.367-.874v-.557Z" fill="#e6dcd0"/>
      <path id="Path_2065" data-name="Path 2065" d="M2150.9,385.909a17.41,17.41,0,0,0,7.653-1.433c4.193-2.2,2.224-7.672-1.917-8.365-2.859-.821-15.111-.37-19.691-.437v.5c2.069.131,3.348,1.248,3.286,3.661v11.713c.064,2.4-1.226,3.527-3.286,3.661v.558h11.029v-.522c-4.72-.128-3.31-8.386-3.494-9.332h4.524l6.958,9.854h6.7v-.554C2158.575,394.832,2153.082,388.679,2150.9,385.909Zm-6.42-.524V376.18c3.9.048,12.189-1.031,11.654,4.583C2156.393,386.815,2144.927,385.367,2144.483,385.385Z" fill="#e6dcd0"/>
      <path id="Path_2066" data-name="Path 2066" d="M2091.809,375.649v7.858h.372l0-.009a13.709,13.709,0,0,1,1.785-4.131,7.263,7.263,0,0,1,6.255-3.187h1.3v15.372q0,3.66-3.659,3.659h-.177v.56h11.59V395.2c-2.352-.039-3.535-1.251-3.535-3.652V376.18h1.053a7.764,7.764,0,0,1,6.33,3.039,12.426,12.426,0,0,1,1.885,4.288h.4v-7.858Z" fill="#e6dcd0"/>
    </g>
    <path id="Path_2067" data-name="Path 2067" d="M2063.376,370.232h-.094a6.341,6.341,0,0,1-5.4,5.524v.141a6.339,6.339,0,0,1,5.4,5.548h.088a6.32,6.32,0,0,1,5.542-5.573v-.093A6.319,6.319,0,0,1,2063.376,370.232Z" fill="#de6346" fill-rule="evenodd"/>
  </g>
</svg>
